<svg width="30" height="30" viewBox="0 0 30 30" fill="none" xmlns="http://www.w3.org/2000/svg">
<g clip-path="url(#clip0_747_264)">
<path d="M21.6667 11.6668C21.6667 7.06266 16.8177 3.3335 10.8333 3.3335C4.84896 3.3335 0 7.06266 0 11.6668C0 13.4533 0.734375 15.0991 1.97917 16.4585C1.28125 18.0314 0.130208 19.2814 0.114583 19.297C0 19.4168 -0.03125 19.5939 0.0364583 19.7502C0.104167 19.9064 0.25 20.0002 0.416667 20.0002C2.32292 20.0002 3.90104 19.3595 5.03646 18.6981C6.71354 19.5158 8.69792 20.0002 10.8333 20.0002C16.8177 20.0002 21.6667 16.271 21.6667 11.6668ZM28.0208 23.1252C29.2656 21.771 30 20.12 30 18.3335C30 14.8491 27.2135 11.8647 23.2656 10.62C23.3125 10.9637 23.3333 11.3127 23.3333 11.6668C23.3333 17.1825 17.724 21.6668 10.8333 21.6668C10.2708 21.6668 9.72396 21.6252 9.18229 21.5679C10.8229 24.5627 14.6771 26.6668 19.1667 26.6668C21.3021 26.6668 23.2865 26.1877 24.9635 25.3647C26.099 26.0262 27.6771 26.6668 29.5833 26.6668C29.75 26.6668 29.901 26.5679 29.9635 26.4168C30.0312 26.2658 30 26.0887 29.8854 25.9637C29.8698 25.9481 28.7188 24.7033 28.0208 23.1252Z" fill="black"/>
<g clip-path="url(#clip1_747_264)">
<path d="M26.8489 14.8662C24.4952 10.2737 19.8355 7.1665 14.5 7.1665C9.16447 7.1665 4.50345 10.2759 2.15102 14.8666C2.05173 15.063 2 15.28 2 15.5001C2 15.7201 2.05173 15.9371 2.15102 16.1335C4.50475 20.726 9.16447 23.8332 14.5 23.8332C19.8355 23.8332 24.4965 20.7238 26.8489 16.1331C26.9482 15.9367 27 15.7197 27 15.4996C27 15.2795 26.9482 15.0626 26.8489 14.8662ZM14.5 21.7498C13.2638 21.7498 12.0555 21.3833 11.0277 20.6965C9.99985 20.0098 9.19878 19.0336 8.72573 17.8916C8.25268 16.7496 8.12891 15.4929 8.37007 14.2805C8.61123 13.0681 9.20648 11.9545 10.0806 11.0804C10.9546 10.2063 12.0683 9.61109 13.2807 9.36993C14.493 9.12877 15.7497 9.25254 16.8917 9.72559C18.0338 10.1986 19.0099 10.9997 19.6967 12.0275C20.3834 13.0553 20.75 14.2637 20.75 15.4998C20.7504 16.3207 20.589 17.1336 20.275 17.8921C19.9611 18.6505 19.5007 19.3397 18.9203 19.9201C18.3398 20.5006 17.6507 20.9609 16.8922 21.2749C16.1338 21.5888 15.3208 21.7502 14.5 21.7498ZM14.5 11.3332C14.1281 11.3384 13.7586 11.3937 13.4015 11.4977C13.6958 11.8977 13.8371 12.39 13.7996 12.8852C13.7621 13.3805 13.5484 13.8459 13.1972 14.1971C12.846 14.5483 12.3806 14.762 11.8854 14.7995C11.3901 14.8369 10.8978 14.6957 10.4978 14.4013C10.27 15.2405 10.3111 16.1301 10.6154 16.9447C10.9196 17.7594 11.4717 18.4581 12.1938 18.9425C12.916 19.427 13.7719 19.6728 14.641 19.6453C15.5102 19.6179 16.3489 19.3185 17.039 18.7895C17.7291 18.2604 18.236 17.5282 18.4882 16.696C18.7404 15.8638 18.7253 14.9734 18.445 14.1503C18.1647 13.3271 17.6333 12.6125 16.9256 12.1072C16.2179 11.6018 15.3696 11.3311 14.5 11.3332Z" fill="black"/>
<path d="M26.8489 14.8662C24.4952 10.2737 19.8355 7.1665 14.5 7.1665C9.16447 7.1665 4.50345 10.2759 2.15102 14.8666C2.05173 15.063 2 15.28 2 15.5001C2 15.7201 2.05173 15.9371 2.15102 16.1335C4.50475 20.726 9.16447 23.8332 14.5 23.8332C19.8355 23.8332 24.4965 20.7238 26.8489 16.1331C26.9482 15.9367 27 15.7197 27 15.4996C27 15.2795 26.9482 15.0626 26.8489 14.8662ZM14.5 21.7498C13.2638 21.7498 12.0555 21.3833 11.0277 20.6965C9.99985 20.0098 9.19878 19.0336 8.72573 17.8916C8.25268 16.7496 8.12891 15.4929 8.37007 14.2805C8.61123 13.0681 9.20648 11.9545 10.0806 11.0804C10.9546 10.2063 12.0683 9.61109 13.2807 9.36993C14.493 9.12877 15.7497 9.25254 16.8917 9.72559C18.0338 10.1986 19.0099 10.9997 19.6967 12.0275C20.3834 13.0553 20.75 14.2637 20.75 15.4998C20.7504 16.3207 20.589 17.1336 20.275 17.8921C19.9611 18.6505 19.5007 19.3397 18.9203 19.9201C18.3398 20.5006 17.6507 20.9609 16.8922 21.2749C16.1338 21.5888 15.3208 21.7502 14.5 21.7498ZM14.5 11.3332C14.1281 11.3384 13.7586 11.3937 13.4015 11.4977C13.6958 11.8977 13.8371 12.39 13.7996 12.8852C13.7621 13.3805 13.5484 13.8459 13.1972 14.1971C12.846 14.5483 12.3806 14.762 11.8854 14.7995C11.3901 14.8369 10.8978 14.6957 10.4978 14.4013C10.27 15.2405 10.3111 16.1301 10.6154 16.9447C10.9196 17.7594 11.4717 18.4581 12.1938 18.9425C12.916 19.427 13.7719 19.6728 14.641 19.6453C15.5102 19.6179 16.3489 19.3185 17.039 18.7895C17.7291 18.2604 18.236 17.5282 18.4882 16.696C18.7404 15.8638 18.7253 14.9734 18.445 14.1503C18.1647 13.3271 17.6333 12.6125 16.9256 12.1072C16.2179 11.6018 15.3696 11.3311 14.5 11.3332Z" fill="black"/>
</g>
</g>
<defs>
<clipPath id="clip0_747_264">
<rect width="30" height="30" fill="white"/>
</clipPath>
<clipPath id="clip1_747_264">
<rect width="25" height="25" fill="white" transform="translate(2 3)"/>
</clipPath>
</defs>
</svg>
