<svg width="25" height="25" viewBox="0 0 25 25" fill="none" xmlns="http://www.w3.org/2000/svg">
<path d="M24.8489 11.8662C22.4952 7.27371 17.8355 4.1665 12.5 4.1665C7.16447 4.1665 2.50345 7.27588 0.151018 11.8666C0.0517306 12.063 0 12.28 0 12.5001C0 12.7201 0.0517306 12.9371 0.151018 13.1335C2.50475 17.726 7.16447 20.8332 12.5 20.8332C17.8355 20.8332 22.4965 17.7238 24.8489 13.1331C24.9482 12.9367 25 12.7197 25 12.4996C25 12.2795 24.9482 12.0626 24.8489 11.8662ZM12.5 18.7498C11.2638 18.7498 10.0555 18.3833 9.02766 17.6965C7.99985 17.0098 7.19878 16.0336 6.72573 14.8916C6.25268 13.7496 6.12891 12.4929 6.37007 11.2805C6.61123 10.0681 7.20648 8.9545 8.08056 8.08042C8.95464 7.20634 10.0683 6.61109 11.2807 6.36993C12.493 6.12877 13.7497 6.25254 14.8917 6.72559C16.0338 7.19864 17.0099 7.99972 17.6967 9.02752C18.3834 10.0553 18.75 11.2637 18.75 12.4998C18.7504 13.3207 18.589 14.1336 18.275 14.8921C17.9611 15.6505 17.5007 16.3397 16.9203 16.9201C16.3398 17.5006 15.6507 17.9609 14.8922 18.2749C14.1338 18.5888 13.3208 18.7502 12.5 18.7498ZM12.5 8.33317C12.1281 8.33837 11.7586 8.3937 11.4015 8.49767C11.6958 8.8977 11.8371 9.38998 11.7996 9.88523C11.7621 10.3805 11.5484 10.8459 11.1972 11.1971C10.846 11.5483 10.3806 11.762 9.88537 11.7995C9.39012 11.8369 8.89784 11.6957 8.49781 11.4013C8.27001 12.2405 8.31113 13.1301 8.61538 13.9447C8.91962 14.7594 9.47167 15.4581 10.1938 15.9425C10.916 16.427 11.7719 16.6728 12.641 16.6453C13.5102 16.6179 14.3489 16.3185 15.039 15.7895C15.7291 15.2604 16.236 14.5282 16.4882 13.696C16.7404 12.8638 16.7253 11.9734 16.445 11.1503C16.1647 10.3271 15.6333 9.61253 14.9256 9.10718C14.2179 8.60183 13.3696 8.33112 12.5 8.33317Z" fill="black"/>
</svg>
