<svg width="25" height="25" viewBox="0 0 25 25" fill="none" xmlns="http://www.w3.org/2000/svg">
<g id="user-tie">
<path id="Vector" d="M12.5 12.5C15.9521 12.5 18.75 9.70215 18.75 6.25C18.75 2.79785 15.9521 0 12.5 0C9.04785 0 6.25 2.79785 6.25 6.25C6.25 9.70215 9.04785 12.5 12.5 12.5ZM17.1777 14.0918L14.8438 23.4375L13.2812 16.7969L14.8438 14.0625H10.1562L11.7188 16.7969L10.1562 23.4375L7.82227 14.0918C4.34082 14.2578 1.5625 17.1045 1.5625 20.625V22.6562C1.5625 23.9502 2.6123 25 3.90625 25H21.0938C22.3877 25 23.4375 23.9502 23.4375 22.6562V20.625C23.4375 17.1045 20.6592 14.2578 17.1777 14.0918Z" fill="black"/>
</g>
</svg>
