<svg width="194" height="182" viewBox="0 0 194 182" fill="none" xmlns="http://www.w3.org/2000/svg">
<path opacity="0.855206" d="M143.977 9.91341C158.351 18.4415 166.639 33.7001 175.165 48.0747C183.543 62.1993 193.966 76.5894 193.255 92.9962C192.555 109.158 180.187 121.819 171.381 135.389C163.251 147.919 156.046 161.326 143.577 169.549C130.948 177.878 115.857 181.648 100.731 181.982C85.7003 182.314 71.1906 178.013 57.6661 171.445C43.771 164.698 31.2316 155.68 21.6369 143.575C11.3102 130.545 2.38927 115.852 0.511556 99.3331C-1.43208 82.2342 2.18651 64.4761 10.9632 49.6733C19.5782 35.1434 34.4561 26.0939 49.0148 17.5278C63.2946 9.12577 78.2451 1.69274 94.7603 0.368508C111.707 -0.990319 129.356 1.23833 143.977 9.91341Z" fill="#62AAFF"/>
</svg>
